<svg width="22" height="22" viewBox="0 0 22 22" fill="none" xmlns="http://www.w3.org/2000/svg">
<path fill-rule="evenodd" clip-rule="evenodd" d="M11 22C17.0751 22 22 17.0751 22 11C22 4.92487 17.0751 0 11 0C4.92487 0 0 4.92487 0 11C0 17.0751 4.92487 22 11 22ZM7.87781 11.2896C7.87781 9.39983 9.40174 7.87557 11.2911 7.87557C13.1804 7.87557 14.7043 9.39983 14.7043 11.2896C14.7043 13.1793 13.1804 14.7036 11.2911 14.7036C9.40174 14.7036 7.87781 13.1793 7.87781 11.2896ZM9.072 11.2896C9.072 12.5137 10.0701 13.5091 11.2911 13.5091C12.512 13.5091 13.5101 12.5137 13.5101 11.2896C13.5101 10.0654 12.5149 9.07002 11.2911 9.07002C10.0672 9.07002 9.072 10.0654 9.072 11.2896ZM14.8439 8.53222C15.2836 8.53222 15.64 8.17864 15.64 7.73592C15.64 7.29617 15.2836 6.93961 14.8439 6.93961C14.4043 6.93961 14.0478 7.29617 14.0478 7.73592C14.0478 8.17567 14.4013 8.53222 14.8439 8.53222ZM16.8253 5.75407C17.6066 6.53255 17.8502 7.47742 17.9007 8.54411C17.9631 9.64348 17.9631 12.9357 17.9007 14.035C17.8472 15.1017 17.6036 16.0466 16.8253 16.8251C16.047 17.6065 15.1024 17.8502 14.0359 17.9007C12.9368 17.9631 9.64236 17.9631 8.54323 17.9007C7.47678 17.8472 6.5351 17.6035 5.75382 16.8251C4.97255 16.0466 4.72896 15.1017 4.67846 14.035C4.61608 12.9357 4.61608 9.64051 4.67846 8.54113C4.73193 7.47444 4.97255 6.52958 5.75382 5.7511C6.5351 4.97263 7.47975 4.72898 8.54323 4.67847C9.64236 4.61607 12.9368 4.61607 14.0359 4.67847C15.1024 4.73195 16.047 4.9756 16.8253 5.75407ZM15.2152 16.4804C15.8004 16.2457 16.249 15.797 16.4807 15.2146C16.7788 14.4654 16.7622 12.8264 16.7515 11.764C16.7497 11.5878 16.7481 11.4274 16.7481 11.2896C16.7481 11.1517 16.7497 10.9914 16.7515 10.8152C16.7622 9.75334 16.7788 8.1163 16.4807 7.36451C16.246 6.77917 15.7975 6.3305 15.2152 6.09874C14.4638 5.80218 12.8173 5.81798 11.7554 5.82817C11.5831 5.82982 11.4262 5.83133 11.2911 5.83133C11.1532 5.83133 10.9929 5.8297 10.8168 5.82792C9.75517 5.81716 8.11849 5.80057 7.36687 6.09874C6.78166 6.33347 6.33309 6.78214 6.10139 7.36451C5.80489 8.11613 5.82069 9.76303 5.83087 10.8251C5.83253 10.9974 5.83403 11.1544 5.83403 11.2896C5.83403 11.4274 5.83241 11.5878 5.83062 11.7639C5.81987 12.8258 5.80328 14.4628 6.10139 15.2146C6.33606 15.8 6.78463 16.2486 7.36687 16.4804C8.11832 16.777 9.76485 16.7612 10.8267 16.751C10.999 16.7493 11.1559 16.7478 11.2911 16.7478C11.4289 16.7478 11.5892 16.7494 11.7653 16.7512C12.8269 16.762 14.4636 16.7786 15.2152 16.4804Z" fill="#E65540"/>
</svg>
