<svg width="22" height="22" viewBox="0 0 22 22" fill="none" xmlns="http://www.w3.org/2000/svg">
<path d="M11 0C4.92782 0 0 4.92782 0 11C0 17.0722 4.92782 22 11 22C17.0722 22 22 17.0722 22 11C22 4.92782 17.0722 0 11 0ZM15.4665 16.1851C15.2802 16.1851 15.1649 16.1274 14.9919 16.0254C12.2242 14.3577 9.00403 14.2867 5.82379 14.9387C5.65081 14.9831 5.4246 15.054 5.29597 15.054C4.86573 15.054 4.59516 14.7125 4.59516 14.3532C4.59516 13.8964 4.86573 13.679 5.19839 13.6081C8.83105 12.8052 12.5435 12.8762 15.7105 14.7702C15.981 14.9431 16.1407 15.0984 16.1407 15.502C16.1407 15.9056 15.8258 16.1851 15.4665 16.1851ZM16.6597 13.2754C16.429 13.2754 16.2738 13.1734 16.1141 13.0891C13.3419 11.448 9.20806 10.7871 5.53105 11.7851C5.31814 11.8427 5.20282 11.9004 5.00323 11.9004C4.52863 11.9004 4.14274 11.5145 4.14274 11.0399C4.14274 10.5653 4.37339 10.2504 4.83024 10.1218C6.06331 9.77581 7.32298 9.51855 9.16815 9.51855C12.0468 9.51855 14.8278 10.2327 17.019 11.5367C17.3782 11.7496 17.5202 12.0246 17.5202 12.4105C17.5157 12.8895 17.1431 13.2754 16.6597 13.2754ZM18.0347 9.89556C17.804 9.89556 17.6621 9.8379 17.4625 9.72258C14.3044 7.8375 8.65806 7.38508 5.00323 8.40524C4.84355 8.4496 4.64395 8.52056 4.43105 8.52056C3.84556 8.52056 3.39758 8.06371 3.39758 7.47379C3.39758 6.87056 3.77016 6.52903 4.16935 6.41371C5.73065 5.95685 7.47823 5.73952 9.38105 5.73952C12.619 5.73952 16.0121 6.41371 18.4915 7.85968C18.8375 8.05927 19.0637 8.33427 19.0637 8.8621C19.0637 9.46532 18.5758 9.89556 18.0347 9.89556Z" fill="#E65540"/>
</svg>
